<svg width="122" height="36" viewBox="0 0 122 36" fill="none" xmlns="http://www.w3.org/2000/svg">
<path d="M7.87048 31.5226L0.36969 4.47744H4.66152L9.93056 25.4216H10.1815L15.6618 4.47744H19.914L25.3943 25.4348H25.6453L30.9011 4.47744H35.2061L27.6921 31.5226H23.5852L17.8936 11.2651H17.6823L11.9906 31.5226H7.87048Z" fill="white"/>
<path d="M7.87048 31.5226L0.36969 4.47744H4.66152L9.93056 25.4216H10.1815L15.6618 4.47744H19.914L25.3943 25.4348H25.6453L30.9011 4.47744H35.2061L27.6921 31.5226H23.5852L17.8936 11.2651H17.6823L11.9906 31.5226H7.87048Z" fill="url(#paint0_linear_112_485)"/>
<path d="M43.9218 27.9174L70.967 35.4182V31.1264L50.0228 25.8573V25.6064L70.967 20.1261V15.8739L50.0096 10.3936V10.1427L70.967 4.88681V0.581779L43.9218 8.09578V12.2027L64.1793 17.8944V18.1056L43.9218 23.7973V27.9174Z" fill="white"/>
<path d="M43.9218 27.9174L70.967 35.4182V31.1264L50.0228 25.8573V25.6064L70.967 20.1261V15.8739L50.0096 10.3936V10.1427L70.967 4.88681V0.581779L43.9218 8.09578V12.2027L64.1793 17.8944V18.1056L43.9218 23.7973V27.9174Z" fill="url(#paint1_linear_112_485)"/>
<path d="M121.63 27.9042L94.5852 35.405V31.1132L115.529 25.8441V25.5932L94.5852 20.1129V15.8607L115.543 10.3804V10.1294L94.5852 4.8736V0.568573L121.63 8.08257V12.1895L101.373 17.8811V18.0924L121.63 23.7841V27.9042Z" fill="white"/>
<path d="M121.63 27.9042L94.5852 35.405V31.1132L115.529 25.8441V25.5932L94.5852 20.1129V15.8607L115.543 10.3804V10.1294L94.5852 4.8736V0.568573L121.63 8.08257V12.1895L101.373 17.8811V18.0924L121.63 23.7841V27.9042Z" fill="url(#paint2_linear_112_485)"/>
<path d="M82.6991 9.94867L82.6985 7.59895L83.9713 7.59862C82.979 6.76342 82.4826 5.64742 82.4823 4.25064C82.482 3.21938 82.7624 2.34468 83.3236 1.62657C83.8978 0.921502 84.694 0.568838 85.7122 0.568575C86.8218 0.568289 87.6639 0.953166 88.2384 1.72321C88.813 2.49324 89.1005 3.50486 89.1008 4.75804C89.101 5.7632 88.9577 6.71618 88.6707 7.61699L88.8665 7.61694C89.5845 7.61675 90.1327 7.39469 90.5112 6.95076C90.8896 6.51988 91.0788 5.89323 91.0785 5.07083C91.0783 4.13094 90.8627 3.14542 90.4316 2.11426L92.3308 1.4676C92.9055 2.74674 93.193 4.0586 93.1934 5.40316C93.1938 6.90438 92.8155 8.03365 92.0586 8.79097C91.3016 9.56136 90.2248 9.94673 88.828 9.94709L82.6991 9.94867ZM86.4385 7.65672L87.0259 7.65657C87.2999 6.95158 87.4368 6.16178 87.4365 5.28716C87.4363 4.54308 87.2926 3.96221 87.0053 3.54456C86.718 3.12691 86.3133 2.91815 85.7911 2.91828C85.3212 2.9184 84.9492 3.10778 84.6751 3.48642C84.4011 3.86506 84.2642 4.34156 84.2643 4.91594C84.2645 5.71224 84.467 6.36488 84.8718 6.87389C85.2766 7.39594 85.7989 7.65689 86.4385 7.65672Z" fill="white"/>
<path d="M82.6991 9.94867L82.6985 7.59895L83.9713 7.59862C82.979 6.76342 82.4826 5.64742 82.4823 4.25064C82.482 3.21938 82.7624 2.34468 83.3236 1.62657C83.8978 0.921502 84.694 0.568838 85.7122 0.568575C86.8218 0.568289 87.6639 0.953166 88.2384 1.72321C88.813 2.49324 89.1005 3.50486 89.1008 4.75804C89.101 5.7632 88.9577 6.71618 88.6707 7.61699L88.8665 7.61694C89.5845 7.61675 90.1327 7.39469 90.5112 6.95076C90.8896 6.51988 91.0788 5.89323 91.0785 5.07083C91.0783 4.13094 90.8627 3.14542 90.4316 2.11426L92.3308 1.4676C92.9055 2.74674 93.193 4.0586 93.1934 5.40316C93.1938 6.90438 92.8155 8.03365 92.0586 8.79097C91.3016 9.56136 90.2248 9.94673 88.828 9.94709L82.6991 9.94867ZM86.4385 7.65672L87.0259 7.65657C87.2999 6.95158 87.4368 6.16178 87.4365 5.28716C87.4363 4.54308 87.2926 3.96221 87.0053 3.54456C86.718 3.12691 86.3133 2.91815 85.7911 2.91828C85.3212 2.9184 84.9492 3.10778 84.6751 3.48642C84.4011 3.86506 84.2642 4.34156 84.2643 4.91594C84.2645 5.71224 84.467 6.36488 84.8718 6.87389C85.2766 7.39594 85.7989 7.65689 86.4385 7.65672Z" fill="url(#paint3_linear_112_485)"/>
<path d="M82.6999 12.7667L93.0386 12.764L93.0392 15.1333L90.7091 15.1339C92.4716 15.8645 93.3139 17.0848 93.236 18.7949L90.7296 18.7955L90.7296 18.6585C90.7293 17.588 90.3766 16.7331 89.6716 16.0936C88.9795 15.4542 87.9678 15.1346 86.6362 15.1349L82.7005 15.136L82.6999 12.7667Z" fill="white"/>
<path d="M82.6999 12.7667L93.0386 12.764L93.0392 15.1333L90.7091 15.1339C92.4716 15.8645 93.3139 17.0848 93.236 18.7949L90.7296 18.7955L90.7296 18.6585C90.7293 17.588 90.3766 16.7331 89.6716 16.0936C88.9795 15.4542 87.9678 15.1346 86.6362 15.1349L82.7005 15.136L82.6999 12.7667Z" fill="url(#paint4_linear_112_485)"/>
<path d="M82.702 20.9924L93.0408 20.9897L93.0414 23.359L82.7026 23.3617L82.702 20.9924Z" fill="white"/>
<path d="M82.702 20.9924L93.0408 20.9897L93.0414 23.359L82.7026 23.3617L82.702 20.9924Z" fill="url(#paint5_linear_112_485)"/>
<path d="M82.7056 35.1325L82.705 32.7828L83.9778 32.7824C82.9855 31.9472 82.4891 30.8312 82.4888 29.4345C82.4885 28.4032 82.7689 27.5285 83.3301 26.8104C83.9043 26.1053 84.7005 25.7527 85.7187 25.7524C86.8283 25.7521 87.6704 26.137 88.2449 26.907C88.8195 27.6771 89.107 28.6887 89.1073 29.9419C89.1075 30.947 88.9642 31.9 88.6772 32.8008L88.873 32.8008C89.591 32.8006 90.1392 32.5785 90.5177 32.1346C90.8961 31.7037 91.0853 31.077 91.085 30.2546C91.0848 29.3148 90.8692 28.3292 90.4381 27.2981L92.3373 26.6514C92.912 27.9306 93.1995 29.2424 93.1999 30.587C93.2003 32.0882 92.822 33.2175 92.0651 33.9748C91.3081 34.7452 90.2313 35.1305 88.8345 35.1309L82.7056 35.1325ZM86.445 32.8405L87.0324 32.8404C87.3064 32.1354 87.4433 31.3456 87.443 30.471C87.4428 29.7269 87.2991 29.146 87.0118 28.7284C86.7245 28.3107 86.3198 28.102 85.7976 28.1021C85.3277 28.1022 84.9557 28.2916 84.6816 28.6702C84.4076 29.0489 84.2707 29.5254 84.2708 30.0998C84.271 30.8961 84.4735 31.5487 84.8783 32.0577C85.2831 32.5798 85.8054 32.8407 86.445 32.8405Z" fill="white"/>
<path d="M82.7056 35.1325L82.705 32.7828L83.9778 32.7824C82.9855 31.9472 82.4891 30.8312 82.4888 29.4345C82.4885 28.4032 82.7689 27.5285 83.3301 26.8104C83.9043 26.1053 84.7005 25.7527 85.7187 25.7524C86.8283 25.7521 87.6704 26.137 88.2449 26.907C88.8195 27.6771 89.107 28.6887 89.1073 29.9419C89.1075 30.947 88.9642 31.9 88.6772 32.8008L88.873 32.8008C89.591 32.8006 90.1392 32.5785 90.5177 32.1346C90.8961 31.7037 91.0853 31.077 91.085 30.2546C91.0848 29.3148 90.8692 28.3292 90.4381 27.2981L92.3373 26.6514C92.912 27.9306 93.1995 29.2424 93.1999 30.587C93.2003 32.0882 92.822 33.2175 92.0651 33.9748C91.3081 34.7452 90.2313 35.1305 88.8345 35.1309L82.7056 35.1325ZM86.445 32.8405L87.0324 32.8404C87.3064 32.1354 87.4433 31.3456 87.443 30.471C87.4428 29.7269 87.2991 29.146 87.0118 28.7284C86.7245 28.3107 86.3198 28.102 85.7976 28.1021C85.3277 28.1022 84.9557 28.2916 84.6816 28.6702C84.4076 29.0489 84.2707 29.5254 84.2708 30.0998C84.271 30.8961 84.4735 31.5487 84.8783 32.0577C85.2831 32.5798 85.8054 32.8407 86.445 32.8405Z" fill="url(#paint6_linear_112_485)"/>
<path d="M79.6853 35.4314L79.6827 0.570633L82.0042 0.568574L82.0069 35.4294L79.6853 35.4314Z" fill="white"/>
<path d="M79.6853 35.4314L79.6827 0.570633L82.0042 0.568574L82.0069 35.4294L79.6853 35.4314Z" fill="url(#paint7_linear_112_485)"/>
<defs>
<linearGradient id="paint0_linear_112_485" x1="112.873" y1="35.4314" x2="24.3145" y2="24.4794" gradientUnits="userSpaceOnUse">
<stop stop-color="#AD00FF"/>
<stop offset="1" stop-color="#DB00FF"/>
</linearGradient>
<linearGradient id="paint1_linear_112_485" x1="112.873" y1="35.4314" x2="24.3145" y2="24.4794" gradientUnits="userSpaceOnUse">
<stop stop-color="#AD00FF"/>
<stop offset="1" stop-color="#DB00FF"/>
</linearGradient>
<linearGradient id="paint2_linear_112_485" x1="112.873" y1="35.4314" x2="24.3145" y2="24.4794" gradientUnits="userSpaceOnUse">
<stop stop-color="#AD00FF"/>
<stop offset="1" stop-color="#DB00FF"/>
</linearGradient>
<linearGradient id="paint3_linear_112_485" x1="112.873" y1="35.4314" x2="24.3145" y2="24.4794" gradientUnits="userSpaceOnUse">
<stop stop-color="#AD00FF"/>
<stop offset="1" stop-color="#DB00FF"/>
</linearGradient>
<linearGradient id="paint4_linear_112_485" x1="112.873" y1="35.4314" x2="24.3145" y2="24.4794" gradientUnits="userSpaceOnUse">
<stop stop-color="#AD00FF"/>
<stop offset="1" stop-color="#DB00FF"/>
</linearGradient>
<linearGradient id="paint5_linear_112_485" x1="112.873" y1="35.4314" x2="24.3145" y2="24.4794" gradientUnits="userSpaceOnUse">
<stop stop-color="#AD00FF"/>
<stop offset="1" stop-color="#DB00FF"/>
</linearGradient>
<linearGradient id="paint6_linear_112_485" x1="112.873" y1="35.4314" x2="24.3145" y2="24.4794" gradientUnits="userSpaceOnUse">
<stop stop-color="#AD00FF"/>
<stop offset="1" stop-color="#DB00FF"/>
</linearGradient>
<linearGradient id="paint7_linear_112_485" x1="112.873" y1="35.4314" x2="24.3145" y2="24.4794" gradientUnits="userSpaceOnUse">
<stop stop-color="#AD00FF"/>
<stop offset="1" stop-color="#DB00FF"/>
</linearGradient>
</defs>
</svg>
